<svg width="48" height="48" viewBox="0 0 48 48" fill="none" xmlns="http://www.w3.org/2000/svg">
<circle cx="24" cy="24" r="24" fill="#DB2B21"/>
<path d="M24.7225 34.1313C23.6225 34.505 22.2437 33.995 21.9062 32.6038C21.8264 32.274 21.6697 31.9678 21.4491 31.71C21.2285 31.4522 20.9501 31.2502 20.6367 31.1203C20.3232 30.9905 19.9835 30.9364 19.6453 30.9627C19.307 30.9889 18.9797 31.0946 18.69 31.2713C16.7612 32.4463 14.5525 30.2387 15.7275 28.3087C15.9039 28.0192 16.0094 27.6921 16.0356 27.354C16.0618 27.016 16.0078 26.6765 15.8781 26.3633C15.7484 26.05 15.5466 25.7718 15.2891 25.5512C15.0316 25.3306 14.7257 25.1739 14.3963 25.0938C12.2012 24.5613 12.2012 21.4387 14.3963 20.9062C14.726 20.8264 15.0322 20.6697 15.29 20.4491C15.5478 20.2285 15.7498 19.9501 15.8797 19.6367C16.0095 19.3232 16.0636 18.9835 16.0373 18.6453C16.0111 18.307 15.9054 17.9797 15.7287 17.69C14.5537 15.7612 16.7612 13.5525 18.6912 14.7275C19.9412 15.4875 21.5612 14.815 21.9062 13.3963C22.4387 11.2012 25.5613 11.2012 26.0938 13.3963C26.1736 13.726 26.3303 14.0322 26.5509 14.29C26.7715 14.5478 27.0499 14.7498 27.3633 14.8797C27.6768 15.0095 28.0165 15.0636 28.3547 15.0373C28.693 15.0111 29.0203 14.9054 29.31 14.7287C31.2387 13.5537 33.4475 15.7612 32.2725 17.6912C32.0961 17.9808 31.9906 18.3079 31.9644 18.646C31.9382 18.984 31.9922 19.3235 32.1219 19.6367C32.2516 19.95 32.4534 20.2282 32.7109 20.4488C32.9684 20.6694 33.2743 20.8261 33.6038 20.9062C34.3213 21.0812 34.8038 21.5313 35.0538 22.0775M27.7375 23.32C27.8049 22.5321 27.6215 21.7431 27.2136 21.0657C26.8056 20.3883 26.194 19.8572 25.4661 19.5483C24.7381 19.2394 23.9312 19.1686 23.1606 19.3458C22.3899 19.5231 21.6951 19.9394 21.1753 20.5353C20.6554 21.1312 20.3373 21.8761 20.2663 22.6637C20.1953 23.4512 20.3751 24.2411 20.7799 24.9203C21.1848 25.5996 21.794 26.1335 22.5205 26.4457C23.247 26.7579 24.0536 26.8325 24.825 26.6588" stroke="white" stroke-width="2" stroke-linecap="round" stroke-linejoin="round"/>
<path d="M30.3571 34.7517C30.2059 35.199 29.7864 35.5 29.3143 35.5C28.5524 35.5 28.0209 34.7447 28.2782 34.0276L30.8618 26.8247C31.1469 26.0301 31.908 25.5 32.7522 25.5C33.5967 25.5 34.3581 26.0305 34.6429 26.8256L37.2227 34.0279C37.4796 34.745 36.948 35.5 36.1863 35.5C35.7139 35.5 35.2942 35.1986 35.1432 34.751L32.8061 27.8236C32.7983 27.8006 32.7768 27.7852 32.7525 27.7852C32.7283 27.7852 32.7067 27.8006 32.699 27.8236L30.3571 34.7517ZM29.957 32.3945C29.957 31.9388 30.3265 31.5693 30.7822 31.5693H34.6924C35.1482 31.5693 35.5176 31.9388 35.5176 32.3945C35.5176 32.8503 35.1482 33.2197 34.6924 33.2197H30.7822C30.3265 33.2197 29.957 32.8503 29.957 32.3945Z" fill="white"/>
</svg>
