<svg width="21" height="21" viewBox="0 0 21 21" fill="none" xmlns="http://www.w3.org/2000/svg">
<g id="Iconly/Bulk/Category">
<g id="Category">
<path id="Fill 1 (Stroke)" fill-rule="evenodd" clip-rule="evenodd" d="M13.4245 3.00001C12.7227 3.00001 12.1424 3.57517 12.1424 4.29998V7.14545C12.1424 7.87026 12.7227 8.44542 13.4245 8.44542H16.2461C16.9478 8.44542 17.5282 7.87026 17.5282 7.14545V4.29998C17.5282 3.57517 16.9478 3.00001 16.2461 3.00001H13.4245ZM10.4757 4.29998C10.4757 2.66794 11.7891 1.33334 13.4245 1.33334H16.2461C17.8815 1.33334 19.1949 2.66794 19.1949 4.29998V7.14545C19.1949 8.77749 17.8815 10.1121 16.2461 10.1121H13.4245C11.7891 10.1121 10.4757 8.77749 10.4757 7.14545V4.29998Z" fill="#DB2B21"/>
<path id="Combined Shape" fill-rule="evenodd" clip-rule="evenodd" d="M3.8103 3.00001C3.10858 3.00001 2.5282 3.57517 2.5282 4.29998V7.14545C2.5282 7.87026 3.10858 8.44542 3.8103 8.44542H6.63194C7.33367 8.44542 7.91405 7.87026 7.91405 7.14545V4.29998C7.91405 3.57517 7.33367 3.00001 6.63194 3.00001H3.8103ZM0.861534 4.29998C0.861534 2.66794 2.17492 1.33334 3.8103 1.33334H6.63194C8.26733 1.33334 9.58071 2.66794 9.58071 4.29998V7.14545C9.58071 8.77749 8.26733 10.1121 6.63194 10.1121H3.8103C2.17492 10.1121 0.861534 8.77749 0.861534 7.14545V4.29998ZM3.8103 12.5546C3.10858 12.5546 2.5282 13.1298 2.5282 13.8546V16.7C2.5282 17.4243 3.10878 18 3.8103 18H6.63194C7.33347 18 7.91405 17.4243 7.91405 16.7V13.8546C7.91405 13.1298 7.33367 12.5546 6.63194 12.5546H3.8103ZM0.861534 13.8546C0.861534 12.2225 2.17492 10.8879 3.8103 10.8879H6.63194C8.26733 10.8879 9.58071 12.2225 9.58071 13.8546V16.7C9.58071 18.3311 8.26753 19.6667 6.63194 19.6667H3.8103C2.17471 19.6667 0.861534 18.3311 0.861534 16.7V13.8546ZM12.1424 13.8546C12.1424 13.1298 12.7227 12.5546 13.4245 12.5546H16.2461C16.9478 12.5546 17.5282 13.1298 17.5282 13.8546V16.7C17.5282 17.4243 16.9476 18 16.2461 18H13.4245C12.7229 18 12.1424 17.4243 12.1424 16.7V13.8546ZM13.4245 10.8879C11.7891 10.8879 10.4757 12.2225 10.4757 13.8546V16.7C10.4757 18.3311 11.7889 19.6667 13.4245 19.6667H16.2461C17.8817 19.6667 19.1949 18.3311 19.1949 16.7V13.8546C19.1949 12.2225 17.8815 10.8879 16.2461 10.8879H13.4245Z" fill="#264B82"/>
</g>
</g>
</svg>
