<svg width="23" height="21" viewBox="0 0 23 21" fill="none" xmlns="http://www.w3.org/2000/svg">
<g id="Group 33605">
<path id="Vector (Stroke)" fill-rule="evenodd" clip-rule="evenodd" d="M11 7.5C11.5523 7.5 12 7.94716 12 8.49875V12.495C12 13.0466 11.5523 13.4938 11 13.4938C10.4477 13.4938 10 13.0466 10 12.495L10 8.49875C10 7.94716 10.4477 7.5 11 7.5ZM11 14.4925C11.5523 14.4925 12 14.9397 12 15.4913V15.5012C12 16.0528 11.5523 16.5 11 16.5C10.4477 16.5 10 16.0528 10 15.5012V15.4913C10 14.9397 10.4477 14.4925 11 14.4925Z" fill="#DB2B21"/>
<path id="Union" fill-rule="evenodd" clip-rule="evenodd" d="M19.825 16.2826L12.2943 3.23913C11.7253 2.25362 10.3029 2.25363 9.7339 3.23913L2.20324 16.2826C1.63425 17.2681 2.34549 18.5 3.48345 18.5H18.5448C19.6827 18.5 20.394 17.2681 19.825 16.2826ZM14.0264 2.23913C12.6876 -0.0797077 9.34063 -0.0797126 8.00185 2.23913L0.47119 15.2826C-0.867594 17.6014 0.80588 20.5 3.48345 20.5H18.5448C21.2223 20.5 22.8958 17.6015 21.557 15.2826L14.0264 2.23913Z" fill="#264B82"/>
</g>
</svg>
