<svg width="165" height="37" viewBox="0 0 165 37" fill="none" xmlns="http://www.w3.org/2000/svg">
<path d="M56.1106 0.158539V12.7681H52.7489V3.08563H48.3569V12.7681H44.9952V0.158539H56.1106Z" fill="#DB2B21"/>
<path fill-rule="evenodd" clip-rule="evenodd" d="M60.7021 12.6779C61.3914 12.8067 62.2028 12.8708 63.1363 12.8708C64.0717 12.8708 64.8854 12.8067 65.5764 12.6779C66.2673 12.5496 66.8673 12.3189 67.3763 11.9862C67.8853 11.6539 68.2786 11.1819 68.5562 10.5701C68.8341 9.95871 68.9731 9.18353 68.9731 8.24498V4.68208C68.9731 3.74352 68.8334 2.96677 68.5542 2.35261C68.2751 1.73845 67.8818 1.26642 67.3739 0.936505C66.8665 0.606986 66.2673 0.377465 65.5764 0.249122C64.8854 0.120385 64.0717 0.0562134 63.1363 0.0562134C62.2028 0.0562134 61.3914 0.120385 60.7021 0.249122C60.0123 0.377465 59.4139 0.606986 58.9061 0.936505C58.3986 1.26642 58.0045 1.73845 57.7238 2.35261C57.4435 2.96677 57.3033 3.74352 57.3033 4.68208V8.24498C57.3033 9.18353 57.4431 9.95871 57.7222 10.5701C58.0014 11.1819 58.3954 11.6539 58.9041 11.9862C59.4131 12.3189 60.0123 12.5496 60.7021 12.6779ZM64.5831 9.81106C64.2615 9.89964 63.7792 9.94413 63.1363 9.94413C62.4985 9.94413 62.0218 9.89964 61.7057 9.81106C61.3895 9.72208 61.1584 9.53233 61.012 9.24218C60.8655 8.95203 60.784 8.49692 60.7679 7.87568V5.0352C60.784 4.41671 60.8663 3.96397 61.0139 3.67657C61.162 3.38918 61.3931 3.20178 61.7076 3.11399C62.0222 3.02659 62.4985 2.9825 63.1363 2.9825C63.6178 2.9825 64.0017 3.00415 64.2875 3.04628C64.5733 3.08879 64.8068 3.17777 64.9875 3.3132C65.1682 3.44863 65.3 3.65098 65.3835 3.92066C65.467 4.19034 65.5087 4.56159 65.5087 5.0352V7.87568C65.5087 8.49141 65.4347 8.94533 65.2871 9.23824C65.139 9.53114 64.9044 9.72208 64.5831 9.81106Z" fill="#DB2B21"/>
<path fill-rule="evenodd" clip-rule="evenodd" d="M70.0834 12.768H73.4456V9.54209H76.4215C77.3053 9.54209 78.0261 9.45902 78.5844 9.29367C79.1426 9.12793 79.5757 8.86455 79.884 8.50353C80.1914 8.14213 80.4084 7.66261 80.5343 7.06499C80.6599 6.46697 80.7229 5.70518 80.7229 4.7804C80.7229 3.95129 80.6446 3.24344 80.4871 2.65644C80.3296 2.06945 80.0832 1.59387 79.7481 1.2301C79.4131 0.86594 78.9726 0.596655 78.4265 0.421463C77.8805 0.246271 77.212 0.158478 76.4215 0.158478H70.0834V12.768ZM75.7459 6.61542H73.4455V3.08559H75.7459C76.1801 3.08559 76.5041 3.13598 76.7175 3.23716C76.9309 3.33834 77.0742 3.50723 77.1478 3.74423C77.2218 3.98084 77.2588 4.3265 77.2588 4.78043C77.2588 5.34419 77.221 5.74969 77.1458 5.99772C77.0706 6.24535 76.9328 6.41031 76.7317 6.49219C76.5309 6.57447 76.2022 6.61542 75.7459 6.61542Z" fill="#DB2B21"/>
<path d="M87.2479 3.08547V12.7683H83.8862V3.08547H80.6556V0.158386H90.6423V3.08547H87.2479Z" fill="#DB2B21"/>
<path fill-rule="evenodd" clip-rule="evenodd" d="M94.138 10.601H98.6611L99.3182 12.7683H102.75L98.9154 0.158386H93.801L90.0212 12.7683H93.5179L94.138 10.601ZM96.4242 2.67879L97.9879 8.14637H94.8604L96.3911 2.67879H96.4242Z" fill="#DB2B21"/>
<path d="M104.562 0.158539H114.783V12.7681H111.405V3.08563H107.755V8.38037C107.755 9.31342 107.619 10.1154 107.345 10.7858C107.071 11.4563 106.654 11.9712 106.093 12.3311C105.532 12.6909 104.837 12.8708 104.008 12.8708C103.4 12.8708 102.828 12.82 102.292 12.7188V9.99332C102.528 10.0728 102.869 10.1126 103.318 10.1126C103.778 10.1126 104.1 9.98781 104.285 9.739C104.47 9.49018 104.562 9.05358 104.562 8.42958V0.158539Z" fill="#DB2B21"/>
<path d="M45.0188 17.9119H54.2363V29.3277H52.9694V19.0555H46.2853V29.3277H45.0188V17.9119Z" fill="#9D9D9C"/>
<path fill-rule="evenodd" clip-rule="evenodd" d="M56.5871 18.8734C56.2383 19.2855 55.9911 19.8643 55.8462 20.6091C55.7009 21.3544 55.6285 22.3579 55.6285 23.6197C55.6285 24.874 55.7001 25.8728 55.8442 26.6153C55.9883 27.3578 56.2352 27.9353 56.5855 28.3479C56.9355 28.7601 57.4115 29.0471 58.0138 29.2085C58.6158 29.3695 59.417 29.4506 60.4177 29.4506C61.4256 29.4506 62.2338 29.3695 62.8421 29.2085C63.4503 29.0471 63.9279 28.7613 64.2743 28.3515C64.6204 27.9416 64.8656 27.3629 65.0097 26.6153C65.1538 25.8677 65.2259 24.8689 65.2259 23.6197C65.2259 22.363 65.155 21.3603 65.0133 20.6111C64.8719 19.8623 64.6275 19.2824 64.2798 18.8714C63.9322 18.46 63.4586 18.1746 62.859 18.0143C62.2594 17.8541 61.4555 17.7742 60.4473 17.7742C59.4319 17.7742 58.6221 17.8541 58.0174 18.0143C57.4127 18.1746 56.9359 18.4608 56.5871 18.8734ZM57.5071 27.4889C57.2724 27.1649 57.1142 26.7086 57.0323 26.1196C56.9504 25.5311 56.9095 24.6976 56.9095 23.6197C56.9095 22.517 56.948 21.6737 57.0244 21.0902C57.1016 20.5064 57.2575 20.0521 57.4921 19.7281C57.7268 19.4041 58.0669 19.1828 58.5126 19.0651C58.9582 18.947 59.5984 18.8879 60.4326 18.8879C61.2593 18.8879 61.8955 18.947 62.3412 19.0651C62.7869 19.1828 63.1262 19.4033 63.3597 19.7261C63.5935 20.0493 63.7486 20.5032 63.825 21.0883C63.9022 21.6733 63.9408 22.517 63.9408 23.6197C63.9408 24.7126 63.901 25.5504 63.8219 26.1326C63.7419 26.7153 63.5864 27.168 63.3542 27.4905C63.1219 27.8137 62.7806 28.0353 62.3302 28.1558C61.8794 28.2763 61.2471 28.3365 60.4326 28.3365C59.6208 28.3365 58.9885 28.2763 58.5366 28.1558C58.085 28.0353 57.7417 27.8129 57.5071 27.4889Z" fill="#9D9D9C"/>
<path d="M73.9351 25.5124H75.172C75.172 26.5285 75.0417 27.3163 74.7807 27.8761C74.5197 28.4363 74.0654 28.8391 73.417 29.0835C72.7689 29.328 71.8438 29.4505 70.6414 29.4505C69.7297 29.4505 68.9911 29.3705 68.4246 29.2103C67.8584 29.0501 67.4029 28.7662 67.0593 28.3587C66.7152 27.9513 66.4656 27.3702 66.3101 26.6151C66.1549 25.86 66.0774 24.8714 66.0774 23.6494C66.0774 22.4325 66.1538 21.444 66.3065 20.6838C66.4593 19.9239 66.7089 19.3326 67.0553 18.9102C67.4018 18.4881 67.86 18.1933 68.4301 18.0256C69.0001 17.8578 69.7371 17.774 70.6414 17.774C71.543 17.774 72.2745 17.8472 72.8359 17.9937C73.3973 18.1405 73.8292 18.3653 74.1323 18.6681C74.4354 18.9712 74.6488 19.3468 74.7732 19.7956C74.8972 20.2436 74.9795 20.8215 75.0189 21.5294L73.7859 21.5148C73.7063 20.7621 73.5941 20.2141 73.4489 19.8696C73.3036 19.5259 73.0221 19.2763 72.6048 19.1208C72.1875 18.9657 71.5332 18.8877 70.6414 18.8877C69.9659 18.8877 69.4214 18.9543 69.0076 19.0873C68.5943 19.2204 68.2671 19.4562 68.0258 19.7956C67.7848 20.1342 67.6136 20.6105 67.512 21.2239C67.4096 21.8377 67.3589 22.6459 67.3589 23.6494C67.3589 24.6655 67.4089 25.4718 67.5081 26.0694C67.6073 26.6671 67.7773 27.1316 68.0187 27.4647C68.2592 27.7977 68.586 28.0261 68.9982 28.1501C69.4108 28.2745 69.958 28.3363 70.6414 28.3363C71.332 28.3363 71.8891 28.2934 72.3123 28.208C72.7359 28.1221 73.0658 27.9765 73.3016 27.7702C73.5374 27.5639 73.702 27.2828 73.7953 26.9261C73.8882 26.5698 73.9351 26.0986 73.9351 25.5124Z" fill="#9D9D9C"/>
<path d="M79.0974 29.3276V19.0558H75.357V17.8968H84.0859L84.0709 19.0558H80.3789V29.3276H79.0974Z" fill="#9D9D9C"/>
<path fill-rule="evenodd" clip-rule="evenodd" d="M88.5292 17.8971L84.36 29.3275H85.7348L86.6517 26.9768H92.4189L93.276 29.3275H94.6318L90.3737 17.8971H88.5292ZM89.4753 18.8435L92.0091 25.8626H86.9569L89.4753 18.8435Z" fill="#9D9D9C"/>
<path fill-rule="evenodd" clip-rule="evenodd" d="M95.6548 29.3277H101.482C102.535 29.3277 103.285 29.0513 103.731 28.4986C104.177 27.9458 104.399 27.1281 104.399 26.0451C104.399 25.5038 104.355 25.0636 104.265 24.7243C104.176 24.3853 104.004 24.1022 103.75 23.8751C103.494 23.6475 103.122 23.4656 102.63 23.329C103.042 23.1826 103.353 22.9901 103.561 22.7515C103.77 22.5133 103.906 22.2369 103.969 21.9228C104.033 21.6086 104.064 21.2078 104.064 20.7212C104.064 19.7079 103.831 18.9835 103.364 18.5488C102.897 18.1142 102.163 17.8969 101.162 17.8969H95.6548V29.3277ZM96.9218 19.026V22.8857H100.555C101.128 22.8857 101.575 22.8271 101.894 22.7105C102.213 22.594 102.441 22.3877 102.578 22.0921C102.714 21.7964 102.783 21.3755 102.783 20.8291C102.783 20.1311 102.659 19.6563 102.412 19.4039C102.165 19.152 101.698 19.026 101.013 19.026H96.9218ZM96.9218 23.9999V28.1836H100.446C100.993 28.1836 101.425 28.1612 101.743 28.1167C102.061 28.0718 102.322 27.9801 102.527 27.8411C102.732 27.7017 102.882 27.4958 102.976 27.2226C103.071 26.9494 103.118 26.5778 103.118 26.1085C103.118 25.4876 103.056 25.0294 102.933 24.7337C102.811 24.4381 102.604 24.242 102.313 24.1451C102.022 24.0483 101.578 23.9999 100.98 23.9999H96.9218Z" fill="#9D9D9C"/>
<path d="M112.945 17.8969H114.212V28.1836H120.024V17.8969H121.29V28.1836H122.099V31.9544H120.97V29.3277H105.848V17.8969H107.114V28.1836H112.945V17.8969Z" fill="#9D9D9C"/>
<path d="M123.353 17.8969H124.62V28.4596L131.118 17.8969H133.148V29.3277H131.881V18.8732L125.365 29.3277H123.353V17.8969Z" fill="#9D9D9C"/>
<path d="M136.276 17.8969V22.8857H137.42L142.074 17.8969H143.784L138.534 23.4204L144.395 29.3277H142.64L137.405 24.0144H136.276V29.3277H135.009V17.8969H136.276Z" fill="#9D9D9C"/>
<path fill-rule="evenodd" clip-rule="evenodd" d="M145.799 18.8734C145.45 19.2855 145.203 19.8643 145.058 20.6091C144.913 21.3544 144.84 22.3579 144.84 23.6197C144.84 24.874 144.912 25.8728 145.056 26.6153C145.2 27.3578 145.447 27.9353 145.797 28.3479C146.147 28.7601 146.623 29.0471 147.226 29.2085C147.828 29.3695 148.629 29.4506 149.63 29.4506C150.637 29.4506 151.446 29.3695 152.054 29.2085C152.663 29.0471 153.14 28.7613 153.486 28.3515C153.832 27.9416 154.077 27.3629 154.222 26.6153C154.366 25.8677 154.438 24.8689 154.438 23.6197C154.438 22.363 154.367 21.3603 154.225 20.6111C154.084 19.8623 153.839 19.2824 153.491 18.8714C153.144 18.46 152.67 18.1746 152.071 18.0143C151.471 17.8541 150.667 17.7742 149.659 17.7742C148.644 17.7742 147.833 17.8541 147.229 18.0143C146.624 18.1746 146.148 18.4608 145.799 18.8734ZM146.719 27.4889C146.484 27.1649 146.326 26.7086 146.244 26.1196C146.162 25.5311 146.121 24.6976 146.121 23.6197C146.121 22.517 146.16 21.6737 146.236 21.0902C146.314 20.5064 146.469 20.0521 146.704 19.7281C146.939 19.4041 147.279 19.1828 147.724 19.0651C148.171 18.947 148.81 18.8879 149.645 18.8879C150.471 18.8879 151.107 18.947 151.553 19.0651C151.999 19.1828 152.338 19.4033 152.572 19.7261C152.805 20.0493 152.961 20.5032 153.037 21.0883C153.114 21.6733 153.153 22.517 153.153 23.6197C153.153 24.7126 153.113 25.5504 153.033 26.1326C152.954 26.7153 152.798 27.168 152.566 27.4905C152.334 27.8137 151.993 28.0353 151.542 28.1558C151.092 28.2763 150.459 28.3365 149.645 28.3365C148.832 28.3365 148.201 28.2763 147.748 28.1558C147.297 28.0353 146.954 27.8129 146.719 27.4889Z" fill="#9D9D9C"/>
<path fill-rule="evenodd" clip-rule="evenodd" d="M155.733 29.3277H161.56C162.613 29.3277 163.362 29.0513 163.808 28.4986C164.254 27.9458 164.477 27.1281 164.477 26.0451C164.477 25.5038 164.432 25.0636 164.343 24.7243C164.254 24.3853 164.081 24.1022 163.827 23.8751C163.572 23.6475 163.199 23.4656 162.707 23.329C163.119 23.1826 163.43 22.9901 163.639 22.7515C163.847 22.5133 163.983 22.2369 164.046 21.9228C164.11 21.6086 164.142 21.2078 164.142 20.7212C164.142 19.7079 163.908 18.9835 163.441 18.5488C162.974 18.1142 162.24 17.8969 161.24 17.8969H155.733V29.3277ZM156.999 19.026V22.8857H160.632C161.206 22.8857 161.652 22.8271 161.971 22.7105C162.29 22.594 162.519 22.3877 162.655 22.0921C162.792 21.7964 162.86 21.3755 162.86 20.8291C162.86 20.1311 162.736 19.6563 162.489 19.4039C162.242 19.152 161.776 19.026 161.09 19.026H156.999ZM156.999 23.9999V28.1836H160.524C161.07 28.1836 161.502 28.1612 161.82 28.1167C162.138 28.0718 162.4 27.9801 162.605 27.8411C162.81 27.7017 162.959 27.4958 163.054 27.2226C163.148 26.9494 163.195 26.5778 163.195 26.1085C163.195 25.4876 163.134 25.0294 163.011 24.7337C162.888 24.4381 162.681 24.242 162.39 24.1451C162.1 24.0483 161.655 23.9999 161.057 23.9999H156.999Z" fill="#9D9D9C"/>
<path fill-rule="evenodd" clip-rule="evenodd" d="M6.19747 30.1051H23.9446V12.3583H6.19747V30.1051ZM0 6.16125L0.00039369 36.3026H30.1417V6.16086L0 6.16125Z" fill="#9D9D9C"/>
<path fill-rule="evenodd" clip-rule="evenodd" d="M12.3583 23.9442H30.1051V6.19747H12.3583V23.9442ZM6.16125 30.1413H36.3022V0H6.16125V30.1413Z" fill="#C92723"/>
<path d="M30.1417 36.3025L23.9446 30.1412V6.19738L30.1417 6.16077V36.3025Z" fill="#9D9D9C"/>
</svg>
