<svg width="22" height="26" viewBox="0 0 22 26" fill="none" xmlns="http://www.w3.org/2000/svg">
<path id="Vector" d="M20.9587 17.316L19.2427 15.028V10.868C19.2427 7.43599 17.0847 4.34199 13.8867 3.14599C13.8867 1.76799 12.7427 0.649994 11.3647 0.649994H10.6107C9.23272 0.649994 8.08872 1.76799 8.08872 3.17199C4.89072 4.36799 2.73272 7.43599 2.73272 10.894V15.054L1.01672 17.342C0.470721 18.07 0.392721 19.032 0.782721 19.864C1.17272 20.696 2.00472 21.19 2.94072 21.19H6.76272C6.76272 23.504 8.66072 25.402 10.9747 25.402C13.2887 25.402 15.1867 23.53 15.1867 21.19H19.0087C19.9187 21.19 20.7507 20.67 21.1667 19.864C21.5827 19.006 21.5047 18.044 20.9587 17.316ZM11.0007 23.426C9.75272 23.426 8.71272 22.412 8.71272 21.164H13.2887C13.2887 22.412 12.2487 23.426 11.0007 23.426ZM19.4507 18.954C19.3987 19.032 19.2947 19.214 19.0347 19.214H2.96672C2.70672 19.214 2.57672 19.032 2.55072 18.954C2.49872 18.876 2.44672 18.668 2.60272 18.46L4.50072 15.912C4.63072 15.756 4.68272 15.548 4.68272 15.34V10.868C4.68272 8.03399 6.60672 5.53799 9.33672 4.78399C9.75272 4.67999 10.0387 4.28999 10.0387 3.84799V3.14599C10.0387 2.80799 10.2987 2.54799 10.6367 2.54799H11.3907C11.7287 2.54799 11.9887 2.80799 11.9887 3.14599V3.82199C11.9887 4.26399 12.2747 4.62799 12.6907 4.75799C15.4207 5.53799 17.3187 8.05999 17.3187 10.868V15.34C17.3187 15.548 17.3967 15.756 17.5007 15.912L19.3987 18.46C19.5807 18.668 19.5027 18.876 19.4507 18.954Z" fill="#264B82"/>
</svg>
