<svg width="959" height="629" viewBox="0 0 959 629" fill="none" xmlns="http://www.w3.org/2000/svg">
<g opacity="0.8">
<path fill-rule="evenodd" clip-rule="evenodd" d="M946.633 434.147L958.821 427.051V394.087L946.633 401.183V434.147Z" fill="url(#paint0_linear_16_610)"/>
<path fill-rule="evenodd" clip-rule="evenodd" d="M946.633 434.147L934.445 427.051V394.087L946.633 401.183V434.147Z" fill="url(#paint1_linear_16_610)"/>
<path d="M946.633 401.054L934.445 394.087L946.633 387.12L958.821 394.087L946.633 401.054Z" fill="#E5ECF8"/>
</g>
<path fill-rule="evenodd" clip-rule="evenodd" d="M720.747 64.3167L732.803 57.2973V24.688L720.747 31.7074V64.3167Z" fill="url(#paint2_linear_16_610)"/>
<path fill-rule="evenodd" clip-rule="evenodd" d="M720.747 64.3167L708.69 57.2973V24.688L720.747 31.7074V64.3167Z" fill="url(#paint3_linear_16_610)"/>
<path d="M720.747 31.5798L708.69 24.6879L720.747 17.7959L732.803 24.6879L720.747 31.5798Z" fill="#F1F4FA"/>
<path fill-rule="evenodd" clip-rule="evenodd" d="M740.666 74.866L752.723 67.8467V35.2374L740.666 42.2567V74.866Z" fill="url(#paint4_linear_16_610)"/>
<path fill-rule="evenodd" clip-rule="evenodd" d="M740.666 74.866L728.61 67.8467V35.2374L740.666 42.2567V74.866Z" fill="url(#paint5_linear_16_610)"/>
<path d="M740.666 42.1291L728.61 35.2371L740.666 28.3452L752.723 35.2371L740.666 42.1291Z" fill="#F1F4FA"/>
<g opacity="0.8">
<path fill-rule="evenodd" clip-rule="evenodd" d="M872.468 272.72L884.656 265.625V232.661L872.468 239.756V272.72Z" fill="url(#paint6_linear_16_610)"/>
<path fill-rule="evenodd" clip-rule="evenodd" d="M872.468 272.72L860.28 265.625V232.661L872.468 239.756V272.72Z" fill="url(#paint7_linear_16_610)"/>
<path d="M872.468 239.627L860.28 232.661L872.468 225.694L884.656 232.661L872.468 239.627Z" fill="#E5ECF8"/>
</g>
<g opacity="0.8">
<path fill-rule="evenodd" clip-rule="evenodd" d="M857.798 47.7015L869.986 40.6058V7.64197L857.798 14.7376V47.7015Z" fill="url(#paint8_linear_16_610)"/>
<path fill-rule="evenodd" clip-rule="evenodd" d="M857.798 47.7015L845.61 40.6058V7.64197L857.798 14.7376V47.7015Z" fill="url(#paint9_linear_16_610)"/>
<path d="M857.798 14.6087L845.61 7.64182L857.798 0.674942L869.985 7.64182L857.798 14.6087Z" fill="#E5ECF8"/>
</g>
<g opacity="0.8">
<path fill-rule="evenodd" clip-rule="evenodd" d="M774.668 514.045L786.856 506.949V473.985L774.668 481.081V514.045Z" fill="url(#paint10_linear_16_610)"/>
<path fill-rule="evenodd" clip-rule="evenodd" d="M774.668 514.045L762.48 506.949V473.985L774.668 481.081V514.045Z" fill="url(#paint11_linear_16_610)"/>
<path d="M774.668 480.952L762.48 473.985L774.668 467.018L786.856 473.985L774.668 480.952Z" fill="#E5ECF8"/>
</g>
<g opacity="0.8">
<path fill-rule="evenodd" clip-rule="evenodd" d="M25.683 629L37.8707 621.904V588.94L25.683 596.036V629Z" fill="url(#paint12_linear_16_610)"/>
<path fill-rule="evenodd" clip-rule="evenodd" d="M25.6828 629L13.495 621.904V588.94L25.6828 596.036V629Z" fill="url(#paint13_linear_16_610)"/>
<path d="M25.6828 595.907L13.495 588.94L25.6828 581.973L37.8705 588.94L25.6828 595.907Z" fill="#E5ECF8"/>
</g>
<g opacity="0.8">
<path fill-rule="evenodd" clip-rule="evenodd" d="M86.808 607.803L98.9957 600.707V567.743L86.808 574.839V607.803Z" fill="url(#paint14_linear_16_610)"/>
<path fill-rule="evenodd" clip-rule="evenodd" d="M86.8078 607.803L74.62 600.707V567.743L86.8078 574.839V607.803Z" fill="url(#paint15_linear_16_610)"/>
<path d="M86.8078 574.71L74.62 567.743L86.8078 560.776L98.9956 567.743L86.8078 574.71Z" fill="#E5ECF8"/>
</g>
<g opacity="0.8">
<path fill-rule="evenodd" clip-rule="evenodd" d="M12.643 371.37L24.8307 364.274V331.31L12.643 338.406V371.37Z" fill="url(#paint16_linear_16_610)"/>
<path fill-rule="evenodd" clip-rule="evenodd" d="M12.6428 371.37L0.455017 364.274V331.31L12.6428 338.406V371.37Z" fill="url(#paint17_linear_16_610)"/>
<path d="M12.6428 338.277L0.455048 331.31L12.6428 324.343L24.8306 331.31L12.6428 338.277Z" fill="#E5ECF8"/>
</g>
<defs>
<linearGradient id="paint0_linear_16_610" x1="952.734" y1="434.152" x2="952.734" y2="394.09" gradientUnits="userSpaceOnUse">
<stop stop-color="#F5F8FC"/>
<stop offset="0.348446" stop-color="#F5F8FC" stop-opacity="0.43"/>
<stop offset="0.679332" stop-color="#CAD4E3" stop-opacity="0.38"/>
<stop offset="1" stop-color="#9DAFC9" stop-opacity="0.49"/>
</linearGradient>
<linearGradient id="paint1_linear_16_610" x1="940.541" y1="434.152" x2="940.541" y2="394.09" gradientUnits="userSpaceOnUse">
<stop stop-color="#F5F8FC"/>
<stop offset="0.381198" stop-color="#F5F8FC" stop-opacity="0.35"/>
<stop offset="1" stop-color="#C5D0E1" stop-opacity="0.19"/>
</linearGradient>
<linearGradient id="paint2_linear_16_610" x1="726.782" y1="64.3213" x2="726.782" y2="24.6908" gradientUnits="userSpaceOnUse">
<stop stop-color="#F5F8FC"/>
<stop offset="0.25098" stop-color="#F5F8FC"/>
<stop offset="1" stop-color="#E0E4F3"/>
</linearGradient>
<linearGradient id="paint3_linear_16_610" x1="714.721" y1="64.3213" x2="714.721" y2="24.6908" gradientUnits="userSpaceOnUse">
<stop stop-color="#F5F8FC"/>
<stop offset="0.25098" stop-color="#F5F8FC"/>
<stop offset="1" stop-color="#E9EDF7"/>
</linearGradient>
<linearGradient id="paint4_linear_16_610" x1="746.701" y1="74.8706" x2="746.701" y2="35.2401" gradientUnits="userSpaceOnUse">
<stop stop-color="#F5F8FC"/>
<stop offset="0.25098" stop-color="#F5F8FC"/>
<stop offset="1" stop-color="#E0E4F3"/>
</linearGradient>
<linearGradient id="paint5_linear_16_610" x1="734.64" y1="74.8706" x2="734.64" y2="35.2401" gradientUnits="userSpaceOnUse">
<stop stop-color="#F5F8FC"/>
<stop offset="0.25098" stop-color="#F5F8FC"/>
<stop offset="1" stop-color="#E9EDF7"/>
</linearGradient>
<linearGradient id="paint6_linear_16_610" x1="878.569" y1="272.725" x2="878.569" y2="232.664" gradientUnits="userSpaceOnUse">
<stop stop-color="#F5F8FC"/>
<stop offset="0.348446" stop-color="#F5F8FC" stop-opacity="0.43"/>
<stop offset="0.679332" stop-color="#CAD4E3" stop-opacity="0.38"/>
<stop offset="1" stop-color="#9DAFC9" stop-opacity="0.49"/>
</linearGradient>
<linearGradient id="paint7_linear_16_610" x1="866.376" y1="272.725" x2="866.376" y2="232.664" gradientUnits="userSpaceOnUse">
<stop stop-color="#F5F8FC"/>
<stop offset="0.381198" stop-color="#F5F8FC" stop-opacity="0.35"/>
<stop offset="1" stop-color="#C5D0E1" stop-opacity="0.19"/>
</linearGradient>
<linearGradient id="paint8_linear_16_610" x1="863.899" y1="47.7062" x2="863.899" y2="7.64474" gradientUnits="userSpaceOnUse">
<stop stop-color="#F5F8FC"/>
<stop offset="0.348446" stop-color="#F5F8FC" stop-opacity="0.43"/>
<stop offset="0.679332" stop-color="#CAD4E3" stop-opacity="0.38"/>
<stop offset="1" stop-color="#9DAFC9" stop-opacity="0.49"/>
</linearGradient>
<linearGradient id="paint9_linear_16_610" x1="851.706" y1="47.7062" x2="851.706" y2="7.64474" gradientUnits="userSpaceOnUse">
<stop stop-color="#F5F8FC"/>
<stop offset="0.381198" stop-color="#F5F8FC" stop-opacity="0.35"/>
<stop offset="1" stop-color="#C5D0E1" stop-opacity="0.19"/>
</linearGradient>
<linearGradient id="paint10_linear_16_610" x1="780.769" y1="514.049" x2="780.769" y2="473.988" gradientUnits="userSpaceOnUse">
<stop stop-color="#F5F8FC"/>
<stop offset="0.348446" stop-color="#F5F8FC" stop-opacity="0.43"/>
<stop offset="0.679332" stop-color="#CAD4E3" stop-opacity="0.38"/>
<stop offset="1" stop-color="#9DAFC9" stop-opacity="0.49"/>
</linearGradient>
<linearGradient id="paint11_linear_16_610" x1="768.576" y1="514.049" x2="768.576" y2="473.988" gradientUnits="userSpaceOnUse">
<stop stop-color="#F5F8FC"/>
<stop offset="0.381198" stop-color="#F5F8FC" stop-opacity="0.35"/>
<stop offset="1" stop-color="#C5D0E1" stop-opacity="0.19"/>
</linearGradient>
<linearGradient id="paint12_linear_16_610" x1="31.7836" y1="629.005" x2="31.7836" y2="588.943" gradientUnits="userSpaceOnUse">
<stop stop-color="#F5F8FC"/>
<stop offset="0.348446" stop-color="#F5F8FC" stop-opacity="0.43"/>
<stop offset="0.679332" stop-color="#CAD4E3" stop-opacity="0.38"/>
<stop offset="1" stop-color="#9DAFC9" stop-opacity="0.49"/>
</linearGradient>
<linearGradient id="paint13_linear_16_610" x1="19.5912" y1="629.005" x2="19.5912" y2="588.943" gradientUnits="userSpaceOnUse">
<stop stop-color="#F5F8FC"/>
<stop offset="0.381198" stop-color="#F5F8FC" stop-opacity="0.35"/>
<stop offset="1" stop-color="#C5D0E1" stop-opacity="0.19"/>
</linearGradient>
<linearGradient id="paint14_linear_16_610" x1="92.9086" y1="607.807" x2="92.9086" y2="567.746" gradientUnits="userSpaceOnUse">
<stop stop-color="#F5F8FC"/>
<stop offset="0.348446" stop-color="#F5F8FC" stop-opacity="0.43"/>
<stop offset="0.679332" stop-color="#CAD4E3" stop-opacity="0.38"/>
<stop offset="1" stop-color="#9DAFC9" stop-opacity="0.49"/>
</linearGradient>
<linearGradient id="paint15_linear_16_610" x1="80.7162" y1="607.807" x2="80.7162" y2="567.746" gradientUnits="userSpaceOnUse">
<stop stop-color="#F5F8FC"/>
<stop offset="0.381198" stop-color="#F5F8FC" stop-opacity="0.35"/>
<stop offset="1" stop-color="#C5D0E1" stop-opacity="0.19"/>
</linearGradient>
<linearGradient id="paint16_linear_16_610" x1="18.7436" y1="371.374" x2="18.7436" y2="331.313" gradientUnits="userSpaceOnUse">
<stop stop-color="#F5F8FC"/>
<stop offset="0.348446" stop-color="#F5F8FC" stop-opacity="0.43"/>
<stop offset="0.679332" stop-color="#CAD4E3" stop-opacity="0.38"/>
<stop offset="1" stop-color="#9DAFC9" stop-opacity="0.49"/>
</linearGradient>
<linearGradient id="paint17_linear_16_610" x1="6.55121" y1="371.374" x2="6.55121" y2="331.313" gradientUnits="userSpaceOnUse">
<stop stop-color="#F5F8FC"/>
<stop offset="0.381198" stop-color="#F5F8FC" stop-opacity="0.35"/>
<stop offset="1" stop-color="#C5D0E1" stop-opacity="0.19"/>
</linearGradient>
</defs>
</svg>
