<svg width="23" height="20" viewBox="0 0 23 20" fill="white" xmlns="http://www.w3.org/2000/svg">
<path fill-rule="evenodd" clip-rule="evenodd" d="M17.2137 2.35115L12.4179 6.39286C12.2203 6.55946 11.9711 6.6507 11.7137 6.6507H10.6137V11.1005H11.7137C11.9711 11.1005 12.2203 11.1917 12.4179 11.3583L17.2137 15.4V2.35115ZM19.4137 6.94876V10.8024C19.5789 10.706 19.7322 10.5875 19.8694 10.4488C20.282 10.0316 20.5137 9.46565 20.5137 8.87557C20.5137 8.2855 20.282 7.71959 19.8694 7.30234C19.7322 7.16365 19.5789 7.04516 19.4137 6.94876ZM19.4137 13.1841C20.1684 12.987 20.8645 12.5889 21.425 12.022C22.2502 11.1875 22.7137 10.0557 22.7137 8.87557C22.7137 7.69542 22.2502 6.5636 21.425 5.72911C20.8645 5.16227 20.1684 4.76416 19.4137 4.56709V2.11473M19.4137 13.1841V15.6364C19.4138 16.038 19.3008 16.4319 19.0879 16.7709C18.8749 17.11 18.5707 17.3807 18.2109 17.5513C17.8512 17.7218 17.4509 17.7852 17.0569 17.7339C16.6628 17.6826 16.2914 17.5187 15.9861 17.2616L11.3155 13.3254H10.6137V17.7751C10.6137 18.3652 10.382 18.9311 9.96938 19.3483C9.5568 19.7656 8.99722 20 8.41375 20H7.31375C6.73027 20 6.17069 19.7656 5.75811 19.3483C5.34553 18.9311 5.11375 18.3652 5.11375 17.7751V13.3254H2.91375C2.33027 13.3254 1.77069 13.0909 1.35811 12.6737C0.94553 12.2565 0.713745 11.6905 0.713745 11.1005V6.6507C0.713745 6.06062 0.94553 5.49471 1.35811 5.07747C1.77069 4.66022 2.33027 4.42581 2.91375 4.42581H9.50914L9.51375 4.4258L9.51835 4.42581H11.3155L15.9859 0.489745C16.2912 0.232605 16.6628 0.0686112 17.0569 0.0173051C17.4509 -0.034001 17.8512 0.0293342 18.2109 0.199889C18.5707 0.370444 18.8749 0.641153 19.0879 0.980291C19.3008 1.31927 19.4138 1.71315 19.4137 2.11473M8.41375 6.6507H2.91375V11.1005H6.20914L6.21375 11.1005L6.21835 11.1005H8.41375V6.6507ZM8.41375 13.3254H7.31375V17.7751H8.41375V13.3254Z" />
</svg>
