<svg width="21" height="20" viewBox="0 0 21 20" fill="none" xmlns="http://www.w3.org/2000/svg">
<path fill-rule="evenodd" clip-rule="evenodd" d="M3.94204 2.22222C3.64735 2.22222 3.36474 2.33929 3.15636 2.54766C2.94799 2.75603 2.83093 3.03865 2.83093 3.33333V16.6667C2.83093 16.9614 2.94799 17.244 3.15636 17.4523C3.36474 17.6607 3.64735 17.7778 3.94204 17.7778H12.6127C12.6101 17.8515 12.6087 17.9256 12.6087 18C12.6087 18.7013 12.729 19.3744 12.9501 20H3.94204C3.05798 20 2.21014 19.6488 1.58501 19.0237C0.959893 18.3986 0.608704 17.5507 0.608704 16.6667V3.33333C0.608704 2.44928 0.959893 1.60143 1.58501 0.976311C2.21014 0.351189 3.05798 0 3.94204 0H15.0531C15.3478 0 15.6304 0.117063 15.8388 0.325437L20.2833 4.76988C20.4916 4.97826 20.6087 5.26087 20.6087 5.55556V12.3414C19.9831 12.1203 19.31 12 18.6087 12C18.5343 12 18.4602 12.0014 18.3865 12.004V6.01579L14.5929 2.22222H13.942V5.55556C13.942 6.16921 13.4446 6.66667 12.8309 6.66667H6.16426C5.55061 6.66667 5.05315 6.16921 5.05315 5.55556V2.22222H3.94204ZM7.27537 4.44444H11.7198V2.22222H7.27537V4.44444Z" fill="white"/>
<path fill-rule="evenodd" clip-rule="evenodd" d="M8.25168 9.8652C8.8768 9.24008 9.72465 8.88889 10.6087 8.88889C11.4928 8.88889 12.3406 9.24008 12.9657 9.8652C13.5908 10.4903 13.942 11.3382 13.942 12.2222C13.942 13.1063 13.5908 13.9541 12.9657 14.5792C12.3406 15.2044 11.4928 15.5556 10.6087 15.5556C9.72465 15.5556 8.8768 15.2044 8.25168 14.5792C7.62656 13.9541 7.27537 13.1063 7.27537 12.2222C7.27537 11.3382 7.62656 10.4903 8.25168 9.8652ZM10.6087 11.1111C10.314 11.1111 10.0314 11.2282 9.82303 11.4365C9.61466 11.6449 9.49759 11.9275 9.49759 12.2222C9.49759 12.5169 9.61466 12.7995 9.82303 13.0079C10.0314 13.2163 10.314 13.3333 10.6087 13.3333C10.9034 13.3333 11.186 13.2163 11.3944 13.0079C11.6028 12.7995 11.7198 12.5169 11.7198 12.2222C11.7198 11.9275 11.6028 11.6449 11.3944 11.4365C11.186 11.2282 10.9034 11.1111 10.6087 11.1111Z" fill="white"/>
<path d="M20.5905 14.9716C20.8442 14.5322 20.6936 13.9705 20.2543 13.7168C19.815 13.4632 19.2532 13.6137 18.9995 14.053L16.8607 17.7575L15.4062 16.9177C14.9669 16.6641 14.4051 16.8146 14.1515 17.254C13.8978 17.6933 14.0484 18.2551 14.4877 18.5087L16.7377 19.8078C17.177 20.0614 17.7388 19.9109 17.9924 19.4715L20.5905 14.9716Z" fill="white"/>
</svg>
