<svg width="23" height="20" viewBox="0 0 23 20" fill="none" xmlns="http://www.w3.org/2000/svg">
<g id="Group 33605">
<path id="Vector (Stroke)" fill-rule="evenodd" clip-rule="evenodd" d="M11 7C11.5523 7 12 7.44716 12 7.99875V11.995C12 12.5466 11.5523 12.9938 11 12.9938C10.4477 12.9938 10 12.5466 10 11.995L10 7.99875C10 7.44716 10.4477 7 11 7ZM11 13.9925C11.5523 13.9925 12 14.4397 12 14.9913V15.0012C12 15.5528 11.5523 16 11 16C10.4477 16 10 15.5528 10 15.0012V14.9913C10 14.4397 10.4477 13.9925 11 13.9925Z" fill="#1A1A1A"/>
<path id="Union" fill-rule="evenodd" clip-rule="evenodd" d="M19.825 15.7826L12.2943 2.73913C11.7253 1.75362 10.3029 1.75363 9.7339 2.73913L2.20324 15.7826C1.63425 16.7681 2.34549 18 3.48345 18H18.5448C19.6827 18 20.394 16.7681 19.825 15.7826ZM14.0264 1.73913C12.6876 -0.579708 9.34063 -0.579713 8.00185 1.73913L0.47119 14.7826C-0.867594 17.1014 0.80588 20 3.48345 20H18.5448C21.2223 20 22.8958 17.1015 21.557 14.7826L14.0264 1.73913Z" fill="#1A1A1A"/>
</g>
</svg>
