<svg width="16" height="14" viewBox="0 0 16 14" fill="none" xmlns="http://www.w3.org/2000/svg">
<g id="Decision">
<g id="Decision_2">
<path d="M9.81846 1.21739L13.5718 7.71845C13.0737 7.76157 12.5969 7.87923 12.1526 8.06021L8.60602 1.91739C8.20773 1.22753 7.21201 1.22754 6.81373 1.91739L1.54227 11.0478C1.14398 11.7377 1.64184 12.6 2.43841 12.6H9.1C9.1 13.0865 9.17089 13.5564 9.30292 14H2.43841C0.564115 14 -0.607316 11.971 0.329832 10.3478L5.60129 1.21739C6.53844 -0.405799 8.88131 -0.405795 9.81846 1.21739Z" fill="#1A1A1A"/>
<path d="M10.295 7.20503C10.5683 7.47839 10.5683 7.92161 10.295 8.19497L7.49497 10.995C7.22161 11.2683 6.77839 11.2683 6.50502 10.995L5.10502 9.59497C4.83166 9.32161 4.83166 8.87839 5.10502 8.60503C5.37839 8.33166 5.82161 8.33166 6.09497 8.60503L7 9.51005L9.30502 7.20503C9.57839 6.93166 10.0216 6.93166 10.295 7.20503Z" fill="#1A1A1A"/>
<path fill-rule="evenodd" clip-rule="evenodd" d="M15.2106 9.55143C15.3835 9.91342 15.4399 10.3201 15.3721 10.7155C15.3042 11.1109 15.1155 11.4755 14.8318 11.7592C14.5481 12.0428 14.1835 12.2316 13.7881 12.2994C13.4587 12.356 13.1214 12.3262 12.8086 12.2147L11.2767 13.7466C11.1144 13.9089 10.8944 14 10.665 14C10.4356 14 10.2156 13.9089 10.0534 13.7466C9.89113 13.5844 9.8 13.3644 9.8 13.135C9.8 12.9056 9.89113 12.6856 10.0534 12.5233L11.5853 10.9914C11.4738 10.6786 11.444 10.3413 11.5006 10.0119C11.5684 9.61648 11.7571 9.25185 12.0408 8.96819C12.3245 8.68452 12.6891 8.49578 13.0845 8.42794C13.4799 8.3601 13.8866 8.41651 14.2486 8.5894C14.3298 8.62817 14.3871 8.70394 14.4023 8.79261C14.4175 8.88128 14.3887 8.97182 14.3251 9.03543L13.4363 9.92422V10.3637H13.8758L14.7646 9.4749C14.8282 9.41128 14.9187 9.38251 15.0074 9.39772C15.0961 9.41294 15.1718 9.47025 15.2106 9.55143ZM14.8318 10.1915L14.1865 10.8368C14.1346 10.8887 14.0641 10.9179 13.9906 10.9179H13.1592C13.0061 10.9179 12.8821 10.7939 12.8821 10.6408V9.80943C12.8821 9.73593 12.9112 9.66544 12.9632 9.61347L13.6085 8.96819C13.4665 8.9479 13.3213 8.94967 13.1782 8.97422C12.8958 9.02267 12.6354 9.15749 12.4327 9.36011C12.2301 9.56273 12.0953 9.82318 12.0468 10.1056C11.9984 10.388 12.0387 10.6785 12.1622 10.9371C12.2128 11.0431 12.1911 11.1694 12.1081 11.2525L10.4453 12.9153C10.387 12.9735 10.3543 13.0526 10.3543 13.135C10.3543 13.2174 10.387 13.2964 10.4453 13.3547C10.5036 13.413 10.5826 13.4457 10.665 13.4457C10.7474 13.4457 10.8265 13.413 10.8847 13.3547L12.5475 11.6919C12.6306 11.6089 12.7569 11.5872 12.8629 11.6378C13.1215 11.7613 13.412 11.8016 13.6944 11.7532C13.9768 11.7047 14.2373 11.5699 14.4399 11.3673C14.6425 11.1646 14.7773 10.9042 14.8258 10.6218C14.8503 10.4787 14.8521 10.3335 14.8318 10.1915Z" fill="#1A1A1A"/>
</g>
</g>
</svg>
