<svg width="22" height="20" viewBox="0 0 22 20" fill="none" xmlns="http://www.w3.org/2000/svg">
<g id="Decision">
<g id="Decision_2">
<path d="M14.0264 1.73913L19.3883 11.0264C18.6767 11.088 17.9955 11.256 17.3608 11.5146L12.2943 2.73913C11.7253 1.75362 10.3029 1.75363 9.7339 2.73913L2.20324 15.7826C1.63425 16.7681 2.34548 18 3.48344 18H13C13 18.695 13.1013 19.3663 13.2899 20H3.48344C0.805879 20 -0.867595 17.1014 0.471189 14.7826L8.00185 1.73913C9.34063 -0.579713 12.6876 -0.579708 14.0264 1.73913Z" />
<path d="M14.7071 10.2929C15.0976 10.6834 15.0976 11.3166 14.7071 11.7071L10.7071 15.7071C10.3166 16.0976 9.68341 16.0976 9.29289 15.7071L7.29289 13.7071C6.90237 13.3166 6.90237 12.6834 7.29289 12.2929C7.68341 11.9024 8.31658 11.9024 8.7071 12.2929L10 13.5858L13.2929 10.2929C13.6834 9.90237 14.3166 9.90237 14.7071 10.2929Z" />
<path fill-rule="evenodd" clip-rule="evenodd" d="M21.7294 13.6449C21.9764 14.162 22.057 14.743 21.9601 15.3079C21.8632 15.8727 21.5935 16.3936 21.1883 16.7988C20.7831 17.2041 20.2622 17.4737 19.6973 17.5706C19.2267 17.6514 18.7448 17.6089 18.298 17.4496L16.1095 19.6381C15.8778 19.8698 15.5635 20 15.2357 20C14.908 20 14.5937 19.8698 14.3619 19.6381C14.1302 19.4063 14 19.092 14 18.7643C14 18.4365 14.1302 18.1222 14.3619 17.8905L16.5504 15.702C16.3911 15.2552 16.3486 14.7733 16.4294 14.3027C16.5263 13.7378 16.7959 13.2169 17.2012 12.8117C17.6064 12.4065 18.1273 12.1368 18.6921 12.0399C19.257 11.943 19.838 12.0236 20.3551 12.2706C20.4711 12.326 20.5529 12.4342 20.5747 12.5609C20.5964 12.6875 20.5553 12.8169 20.4644 12.9078L19.1947 14.1775V14.8053H19.8225L21.0922 13.5356C21.1831 13.4447 21.3125 13.4036 21.4391 13.4253C21.5658 13.4471 21.674 13.5289 21.7294 13.6449ZM21.1883 14.5593L20.2665 15.4811C20.1922 15.5554 20.0915 15.5971 19.9865 15.5971H18.7988C18.5802 15.5971 18.4029 15.4198 18.4029 15.2012V14.0135C18.4029 13.9085 18.4446 13.8078 18.5189 13.7335L19.4407 12.8117C19.2378 12.7827 19.0304 12.7852 18.826 12.8203C18.4226 12.8895 18.0505 13.0821 17.761 13.3716C17.4716 13.661 17.279 14.0331 17.2098 14.4366C17.1406 14.84 17.1981 15.255 17.3745 15.6244C17.4468 15.7758 17.4159 15.9563 17.2972 16.075L14.9218 18.4504C14.8386 18.5336 14.7918 18.6465 14.7918 18.7643C14.7918 18.882 14.8386 18.9949 14.9218 19.0782C15.0051 19.1614 15.118 19.2082 15.2357 19.2082C15.3535 19.2082 15.4664 19.1614 15.5496 19.0782L17.925 16.7028C18.0437 16.5841 18.2242 16.5532 18.3756 16.6255C18.745 16.8019 19.16 16.8594 19.5634 16.7902C19.9669 16.721 20.339 16.5284 20.6284 16.2389C20.9179 15.9495 21.1105 15.5774 21.1797 15.174C21.2148 14.9696 21.2173 14.7622 21.1883 14.5593Z" />
</g>
</g>
</svg>
