<svg width="68" height="79" viewBox="0 0 68 79" fill="none" xmlns="http://www.w3.org/2000/svg">
<g id="Group 33607">
<path id="Intersect" fill-rule="evenodd" clip-rule="evenodd" d="M68 0.642738V69C68 74.5229 63.5229 79 58 79H22.094L1.00001 42.4641C-0.104561 40.5509 0.550939 38.1046 2.46411 37L64.8179 1.00001C65.8221 0.420247 66.9732 0.325373 68 0.642738Z" fill="#D4DBE6"/>
<path id="Vector (Stroke)" fill-rule="evenodd" clip-rule="evenodd" d="M45.476 62.5188C44.8414 61.8772 44.8414 60.837 45.476 60.1955L52.4519 53.1429L33.625 53.1429C32.7275 53.1429 32 52.4073 32 51.5C32 50.5927 32.7275 49.8571 33.625 49.8571L52.4519 49.8571L45.476 42.8045C44.8414 42.163 44.8414 41.1228 45.476 40.4812C46.1106 39.8396 47.1395 39.8396 47.7741 40.4812L57.5241 50.3383C58.1587 50.9799 58.1587 52.0201 57.5241 52.6617L47.7741 62.5188C47.1395 63.1604 46.1106 63.1604 45.476 62.5188Z" fill="#DB2B21"/>
</g>
</svg>
