<svg width="16" height="14" viewBox="0 0 16 14" fill="none" xmlns="http://www.w3.org/2000/svg">
<path id="Published" fill-rule="evenodd" clip-rule="evenodd" d="M11.55 1.64581L8.19294 4.475C8.05456 4.59162 7.88013 4.65549 7.7 4.65549H6.93V7.77033H7.7C7.88013 7.77033 8.05456 7.8342 8.19294 7.95082L11.55 10.78V1.64581ZM13.09 4.86413V7.56167C13.2056 7.49419 13.3129 7.41125 13.4089 7.31416C13.6978 7.02209 13.86 6.62596 13.86 6.2129C13.86 5.79985 13.6978 5.40371 13.4089 5.11164C13.3129 5.01455 13.2056 4.93161 13.09 4.86413ZM13.09 9.22884C13.6182 9.09089 14.1055 8.81221 14.4979 8.41543C15.0755 7.83128 15.4 7.03901 15.4 6.2129C15.4 5.3868 15.0755 4.59452 14.4979 4.01038C14.1055 3.61359 13.6182 3.33491 13.09 3.19696V1.48031M13.09 9.22884V10.9455V10.9455C13.0901 11.2266 13.011 11.5023 12.8619 11.7396C12.7128 11.977 12.4998 12.1665 12.248 12.2859C11.9962 12.4053 11.716 12.4496 11.4402 12.4137C11.1644 12.3778 10.9044 12.2631 10.6907 12.0831L7.42122 9.32775H6.93V12.4426C6.93 12.8556 6.76775 13.2518 6.47894 13.5438C6.19014 13.8359 5.79843 14 5.39 14H4.62C4.21157 14 3.81986 13.8359 3.53106 13.5438C3.24225 13.2518 3.08 12.8556 3.08 12.4426V9.32775H1.54C1.13157 9.32775 0.739861 9.16366 0.451056 8.87159C0.16225 8.57952 0 8.18338 0 7.77033V4.65549C0 4.24244 0.16225 3.8463 0.451056 3.55423C0.739861 3.26215 1.13157 3.09807 1.54 3.09807H6.15678L6.16 3.09806L6.16322 3.09807H7.42122L10.6905 0.342821C10.9042 0.162823 11.1644 0.0480279 11.4402 0.0121135C11.716 -0.0238007 11.9962 0.0205339 12.248 0.139923C12.4998 0.259311 12.7128 0.448807 12.8619 0.686204C13.011 0.92349 13.0901 1.1992 13.09 1.48031M5.39 4.65549H1.54V7.77033H3.84678L3.85 7.77032L3.85322 7.77033H5.39V4.65549ZM5.39 9.32775H4.62V12.4426H5.39V9.32775Z" fill="#404650"/>
</svg>
